<?xml version="1.0" standalone="no"?>
<!DOCTYPE svg PUBLIC "-//W3C//DTD SVG 1.1//EN" "http://www.w3.org/Graphics/SVG/1.1/DTD/svg11.dtd">
<svg width="100%" height="100%" viewBox="0 0 18 18" version="1.1" xmlns="http://www.w3.org/2000/svg" xmlns:xlink="http://www.w3.org/1999/xlink" xml:space="preserve" style="fill-rule:evenodd;clip-rule:evenodd;stroke-linejoin:round;stroke-miterlimit:1.41421;">
    <g transform="matrix(0.0312483,0,0,0.0312483,-2.99883,-2.99883)">
        <path d="M604.48,224.384C630.336,208.512 647.456,186.848 655.84,159.296C630.688,172.64 605.632,181.792 580.608,186.848C558.112,162.656 529.632,150.368 495.488,150.368C462.112,150.368 433.92,162.08 410.912,184.864C388.032,207.808 376.48,235.68 376.48,268.224C376.48,278.112 377.728,286.944 380.224,294.432C281.792,291.072 200.32,250.24 136.128,171.648C125.248,190.88 119.808,210.464 119.808,230.72C119.808,272.352 137.376,305.344 172.448,329.568C152.448,327.872 134.816,322.816 119.808,314.528C119.808,344.256 128.544,369.088 146.048,390.944C163.616,412.576 186.176,426.368 213.728,432.256C203.744,434.816 193.216,436.032 182.4,436.032C172.416,436.032 165.344,435.2 161.152,433.376C168.512,457.6 182.4,477.248 202.464,492.288C222.464,507.392 245.472,515.36 271.328,516.064C228.704,549.504 179.968,566.048 124.832,566.048C111.328,566.048 101.76,565.856 95.968,564.832C150.272,600.096 210.72,617.6 277.6,617.6C346.048,617.6 406.528,600.256 459.168,565.568C511.808,531.072 550.656,488.512 575.616,438.4C600.704,388.352 613.12,336.256 613.12,281.856L613.12,266.88C637.376,248.64 656.992,228.096 672,205.408C650.24,214.784 627.744,221.152 604.48,224.384Z"/>
    </g>
</svg>
